<?xml version="1.0" encoding="UTF-8" standalone="no"?>
<!-- Created with Inkscape (http://www.inkscape.org/) -->

<svg
   width="1873.7227"
   height="441.65823"
   viewBox="0 0 495.75577 116.85541"
   version="1.1"
   id="svg1"
   xml:space="preserve"
   xmlns="http://www.w3.org/2000/svg"
   xmlns:svg="http://www.w3.org/2000/svg"><defs
     id="defs1" /><g
     id="layer1"
     transform="translate(-1136.266,-31.368939)"><g
       id="g75"
       transform="translate(-170.94645,-127.43165)"><path
         id="path71"
         style="baseline-shift:baseline;display:inline;overflow:visible;opacity:1;vector-effect:none;fill:#f9f9f9;fill-opacity:1;stroke-width:1.1176;stroke-linecap:round;enable-background:accumulate;stop-color:#000000;stop-opacity:1"
         d="m 1343.0956,158.80059 c -7.1293,0 -13.9756,2.80226 -19.0603,7.79952 l -11.065,10.87221 c -3.6825,3.61919 -5.7578,8.57128 -5.7578,13.73456 v 71.29487 c 0,7.33418 6.1071,13.31027 13.4395,13.15114 l 88.9057,-1.9296 c 6.8435,-0.14852 12.3786,-5.80629 12.3786,-12.65143 v -88.57185 c 0,-7.52661 -6.1728,-13.69942 -13.6995,-13.69942 z m 0,6.61407 h 65.1412 c 3.9519,0 7.0854,3.13354 7.0854,7.08535 v 88.57185 c 0,3.32111 -2.5884,5.96582 -5.9087,6.03788 l -88.9057,1.9296 c -3.7078,0.0805 -6.6791,-2.82892 -6.6791,-6.53759 v -71.29487 c 0,-3.39178 1.359,-6.63748 3.778,-9.01495 l 11.065,-10.87479 c 3.8493,-3.78319 9.0267,-5.90248 14.4239,-5.90248 z m 1.8247,12.12846 a 9.5203277,9.5203277 0 0 0 -6.7319,2.78846 l -9.2506,9.25008 a 14.141952,14.141952 0 0 0 -4.1424,9.99422 l -0.016,38.42039 a 7.9557995,7.9557995 0 0 0 2.3306,5.62912 l 11.0955,11.09493 a 8.1583934,8.1583934 0 0 0 5.765,2.38951 l 51.8563,0.0253 a 1.1756735,1.1756735 0 0 0 0.8304,-2.00867 l -13.2462,-13.18989 c -4.2346,-3.96078 -9.7492,-7.53334 -16.4109,-8.98602 -6.5168,-1.42108 -13.1664,-0.84178 -20.4282,1.08986 3.4677,-10.39044 4.2413,-21.55114 0,-34.14417 11.4157,3.52759 22.8313,4.83699 34.247,-0.41341 -1.8388,7.23407 -2.6082,14.56285 -1.1622,21.38836 1.3323,6.28941 5.0281,12.51037 8.9271,16.40933 l 14.1898,14.19035 a 0.93599218,0.93599218 0 0 0 1.5978,-0.66197 v -54.04529 a 7.2967854,7.2967854 0 0 0 -2.1368,-5.15936 l -11.8215,-11.82151 a 7.6474077,7.6474077 0 0 0 -5.4074,-2.23965 z" /><text
         xml:space="preserve"
         style="font-style:normal;font-variant:normal;font-weight:normal;font-stretch:normal;font-size:92.332px;font-family:'FONTSPRING DEMO - Integral CF Heavy';-inkscape-font-specification:'FONTSPRING DEMO - Integral CF Heavy, Normal';font-variant-ligatures:normal;font-variant-caps:normal;font-variant-numeric:normal;font-variant-east-asian:normal;text-align:start;writing-mode:lr-tb;direction:ltr;text-anchor:start;fill:#f9f9f9;stroke:none;stroke-width:156.152;stroke-linecap:round;stroke-dasharray:none"
         x="1433.7939"
         y="245.38959"
         id="text75"><tspan
           id="tspan75"
           x="1433.7939"
           y="245.38959"
           style="stroke-width:156.152">QRush</tspan></text></g></g></svg>
