<?xml version="1.0" encoding="UTF-8" standalone="no"?>
<!-- Created with Inkscape (http://www.inkscape.org/) -->

<svg
   width="433.60303"
   height="441.65411"
   viewBox="0 0 114.72413 116.85432"
   version="1.1"
   id="svg1"
   inkscape:version="1.4.2 (f4327f4, 2025-05-13)"
   sodipodi:docname="QRUSH - Visual Identity (Branding &amp; Wireframing).svg"
   xml:space="preserve"
   inkscape:export-batch-path="QRUSH - Wireframes"
   inkscape:export-batch-name=""
   xmlns:inkscape="http://www.inkscape.org/namespaces/inkscape"
   xmlns:sodipodi="http://sodipodi.sourceforge.net/DTD/sodipodi-0.dtd"
   xmlns="http://www.w3.org/2000/svg"
   xmlns:svg="http://www.w3.org/2000/svg"><sodipodi:namedview
     id="namedview1"
     pagecolor="#505050"
     bordercolor="#eeeeee"
     borderopacity="0"
     inkscape:showpageshadow="0"
     inkscape:pageopacity="0"
     inkscape:pagecheckerboard="0"
     inkscape:deskcolor="#505050"
     inkscape:document-units="px"
     inkscape:zoom="0.31559402"
     inkscape:cx="3674.024"
     inkscape:cy="987.02757"
     inkscape:window-width="1366"
     inkscape:window-height="745"
     inkscape:window-x="-8"
     inkscape:window-y="-8"
     inkscape:window-maximized="1"
     inkscape:current-layer="layer1"
     showgrid="false"><inkscape:page
       x="0"
       y="0"
       width="114.72413"
       height="116.85432"
       id="page2"
       margin="0"
       bleed="0" /></sodipodi:namedview><defs
     id="defs1"><inkscape:path-effect
       effect="fillet_chamfer"
       id="path-effect58"
       is_visible="true"
       lpeversion="1"
       nodesatellites_param="F,0,0,1,0,3.9941467,0,1 @ F,0,0,1,0,5.9295786,0,1 @ F,0,0,1,0,3.3398212,0,1 @ F,0,0,1,0,3.4203494,0,1 @ F,0,0,1,0,2.8854611,0,1 @ F,0,0,1,0,0,0,1 @ F,0,0,1,0,0,0,1 @ F,0,0,1,0,0,0,1 @ F,0,0,1,0,0,0,1 @ F,0,0,1,0,0,0,1 @ F,0,0,1,0,0,0,1 @ F,0,0,1,0,0,0,1 @ F,0,0,1,0,2.2887374,0,1 @ F,0,0,1,0,3.0612836,0,1 @ F,0,0,1,0,3.2083879,0,1"
       radius="0"
       unit="px"
       method="auto"
       mode="F"
       chamfer_steps="1"
       flexible="false"
       use_knot_distance="true"
       apply_no_radius="true"
       apply_with_radius="true"
       only_selected="false"
       hide_knots="false" /><inkscape:path-effect
       effect="fillet_chamfer"
       id="path-effect56"
       is_visible="true"
       lpeversion="1"
       nodesatellites_param="F,0,0,1,0,8.183851,0,1 @ F,0,0,1,0,9.003235,0,1 @ F,0,0,1,0,5.9832819,0,1 @ F,0,0,1,0,8.744523,0,1 @ F,0,0,1,0,9.298308,0,1"
       radius="0"
       unit="px"
       method="auto"
       mode="F"
       chamfer_steps="1"
       flexible="false"
       use_knot_distance="true"
       apply_no_radius="true"
       apply_with_radius="true"
       only_selected="false"
       hide_knots="false" /></defs><g
     inkscape:label="Layer 1"
     inkscape:groupmode="layer"
     id="layer1"
     transform="translate(-883.52486,-160.07364)"><path
       style="fill:none;stroke:#000000;stroke-width:5.91857;stroke-linecap:round;stroke-dasharray:none"
       d="m -44.390653,492.92741 -79.550777,1.72642 a 8.8099665,8.8099665 44.37838 0 1 -9.00112,-8.8079 v -63.79358 a 14.269621,14.269621 112.74841 0 1 4.26735,-10.17726 l 9.89982,-9.72961 a 21.372764,21.372764 157.74841 0 1 14.98121,-6.12946 h 58.287133 a 9.298308,9.298308 45 0 1 9.298308,9.29831 l 0,79.25167 a 8.3633841,8.3633841 134.37838 0 1 -8.181924,8.36141 z"
       id="path54"
       sodipodi:nodetypes="cccccc"
       inkscape:path-effect="#path-effect56"
       inkscape:original-d="m -36.208729,492.74985 -96.733821,2.09932 v -78.7801 l 20.40386,-20.05305 h 76.329961 z"
       transform="matrix(1.117598,0,0,1.117598,1035.4085,-279.20578)" /><path
       id="path55"
       style="fill:#000000;stroke:none;stroke-width:1.01298;stroke-linecap:round;stroke-dasharray:none"
       d="m -111.30153,407.95025 -9.36946,9.36946 a 14.323767,14.323767 112.512 0 0 -4.19533,10.12243 l -0.0163,38.91422 a 8.0580823,8.0580823 67.511554 0 0 2.36025,5.70139 l 11.23842,11.23807 a 8.2632808,8.2632808 22.513374 0 0 5.83894,2.42016 l 52.52316,0.0254 a 1.1907884,1.1907884 112.4529 0 0 0.840797,-2.03459 l -13.416406,-13.35946 c -4.28906,-4.0117 -9.8744,-7.62991 -16.62173,-9.10126 -6.60057,-1.43935 -13.33551,-0.85267 -20.690721,1.10381 3.512311,-10.52402 4.295891,-21.82797 0,-34.5829 11.562471,3.57294 23.124811,4.8988 34.687281,-0.4191 -1.86243,7.32707 -2.64173,14.75002 -1.17719,21.66328 1.3495,6.37027 5.09273,12.67159 9.04183,16.62069 l 14.372369,14.37238 a 0.94802565,0.94802565 157.50001 0 0 1.618381,-0.67036 v -54.73985 a 7.3905956,7.3905956 67.500009 0 0 -2.164654,-5.22594 l -11.973424,-11.97343 a 7.7457257,7.7457257 22.499997 0 0 -5.47706,-2.26867 l -40.600703,2e-5 a 9.6427247,9.6427247 157.49998 0 0 -6.81844,2.82429 z"
       inkscape:path-effect="#path-effect58"
       inkscape:original-d="m -108.47724,405.12596 -16.38659,16.3866 -0.0202,48.18362 16.01866,16.01815 58.828971,0.0284 -15.46107,-15.39544 c -4.28906,-4.0117 -9.8744,-7.62991 -16.62173,-9.10126 -6.60057,-1.43935 -13.33551,-0.85267 -20.690721,1.10381 3.512311,-10.52402 4.295891,-21.82797 0,-34.5829 11.562471,3.57294 23.124811,4.8988 34.687281,-0.4191 -1.86243,7.32707 -2.64173,14.75002 -1.17719,21.66328 1.3495,6.37027 5.09273,12.67159 9.04183,16.62069 l 15.99075,15.99076 V 421.5327 l -16.40675,-16.40676 z"
       transform="matrix(0.98730681,0,0,0.98730681,1024.389,-221.16798)"
       inkscape:export-filename="..\QRush\qrush-ui\src\assets\black-logo.svg"
       inkscape:export-xdpi="96"
       inkscape:export-ydpi="96" /></g></svg>
